<svg id="skills">
  <symbol xmlns="http://www.w3.org/2000/svg" viewBox="0 0 32 32" id="typescript">
    <path
      d="M23.827 8.243a4.424 4.424 0 0 1 2.223 1.281 5.853 5.853 0 0 1 .852 1.143c.011.045-1.534 1.083-2.471 1.662-.034.023-.169-.124-.322-.35a2.014 2.014 0 0 0-1.67-1c-1.077-.074-1.771.49-1.766 1.433a1.3 1.3 0 0 0 .153.666c.237.49.677.784 2.059 1.383 2.544 1.095 3.636 1.817 4.31 2.843a5.158 5.158 0 0 1 .416 4.333 4.764 4.764 0 0 1-3.932 2.815 10.9 10.9 0 0 1-2.708-.028 6.531 6.531 0 0 1-3.616-1.884 6.278 6.278 0 0 1-.926-1.371 2.655 2.655 0 0 1 .327-.208c.158-.09.756-.434 1.32-.761l1.024-.6.214.312a4.771 4.771 0 0 0 1.35 1.292 3.3 3.3 0 0 0 3.458-.175 1.545 1.545 0 0 0 .2-1.974c-.276-.395-.84-.727-2.443-1.422a8.8 8.8 0 0 1-3.349-2.055 4.687 4.687 0 0 1-.976-1.777 7.116 7.116 0 0 1-.062-2.268 4.332 4.332 0 0 1 3.644-3.374 9 9 0 0 1 2.691.084zm-8.343 1.483.011 1.454h-4.63v13.148H7.6V11.183H2.97V9.755a13.986 13.986 0 0 1 .04-1.466c.017-.023 2.832-.034 6.245-.028l6.211.017z"></path>
  </symbol>
  <symbol xmlns="http://www.w3.org/2000/svg" viewBox="0 0 512 512" id="vercel">
    <path fill-rule="evenodd" d="M256,48,496,464H16Z"></path>
  </symbol>
  <symbol xmlns="http://www.w3.org/2000/svg" viewBox="0 0 462 512" id="webpack">
    <path
      d="m355.011 174.652-124.187 71.722-124.194-71.718 124.194-68.321 124.187 68.317zm-113.199 90.782v131.152l123.768-68.067V193.953l-123.768 71.481zM16.18 395.744 219.812 510.93v-89.236L92.49 351.672l-76.31 44.072zm203.632.842V265.419L96.044 193.947V328.52l123.768 68.067zm22-395.515V87.27l135.466 74.522 73.541-42.472L241.812 1.07zm127.344 350.59-127.344 70.033v89.235l203.658-115.2-76.314-44.068zm18.424-170.413v155.648l74.044 42.758v-241.17l-74.044 42.764zM84.362 161.796l135.45-74.513V1.071L10.805 119.319l73.557 42.477zM74.044 336.92V181.243L0 138.485v241.198l74.044-42.763z"></path>
  </symbol>
  <symbol xmlns="http://www.w3.org/2000/svg" viewBox="0 0 477 512" id="yarn">
    <path
      d="M201.875 54.078S223.312-11.056 243.1 1.641c6.101 3.958 28.032 52.767 28.032 52.767s23.416-13.686 26.054-8.575c30.535 93.073 2.41 158.697-37.926 211.067 53.649 50.098 62.982 101.431 52.602 166.38 50.47.108 76.45-49.081 140.82-52.107 28.857-.495 30.341 33.309 8.575 38.585-44.75 6.317-88.88 56.237-179.077 81.624-11.635 17.708-81.148 15.728-135.874 20.612-57.902.615-42.944-44.48-22.096-52.107-13.596-7.408-14.15-14.796-16.819-14.016-14.48 77.126-53.98 53.626-78.16 46.995-18.634-9.894 1.319-33.144 1.319-33.144-18.14 7.776-32.457-26.504-30.341-60.187 1.979-26.878 31.99-52.932 31.99-52.932-1.789-67.104 17.813-110.758 69.915-147.417C83.91 177.75 62.91 143.25 90.606 103.06 126.66 93 133.66 50.25 201.876 54.078z"></path>
  </symbol>
  <symbol xmlns="http://www.w3.org/2000/svg" viewBox="0 0 24 24" id="eslint">
    <path
      d="m7.95 9.55 3.89-2.25c.1-.05.22-.05.32 0l3.89 2.25c.1.06.16.16.16.27v4.5c0 .11-.06.21-.16.27l-3.89 2.25a.36.36 0 0 1-.32 0l-3.89-2.25a.315.315 0 0 1-.16-.27v-4.5c0-.11.06-.21.16-.27m14.17 2.05c.17.29.17.63 0 .93l-4.65 8.03c-.17.3-.47.44-.82.44h-9.3c-.35 0-.65-.15-.82-.44l-4.65-8.03a.949.949 0 0 1 0-.95L6.53 3.5c.17-.28.47-.5.82-.5h9.3c.35 0 .65.22.82.5l4.65 8.1m-3.85 3.9V8.65c0-.12-.07-.23-.18-.29l-5.93-3.41a.325.325 0 0 0-.33 0L5.91 8.36c-.11.06-.18.17-.18.29v6.85c0 .11.07.22.18.28l5.93 3.41c.1.06.23.06.33 0l5.92-3.41a.33.33 0 0 0 .18-.28z"></path>
  </symbol>
  <symbol xmlns="http://www.w3.org/2000/svg" xml:space="preserve" viewBox="0 0 438.549 438.549"
    id="github">
    <path d="M409.132 114.573c-19.608-33.596-46.205-60.194-79.798-79.8-33.598-19.607-70.277-29.408-110.063-29.408-39.781 0-76.472 9.804-110.063 29.408-33.596 19.605-60.192 46.204-79.8 79.8C9.803 148.168 0 184.854 0 224.63c0 47.78 13.94 90.745 41.827 128.906 27.884 38.164 63.906 64.572 108.063 79.227 5.14.954 8.945.283 11.419-1.996 2.475-2.282 3.711-5.14 3.711-8.562 0-.571-.049-5.708-.144-15.417a2549.81 2549.81 0 0 1-.144-25.406l-6.567 1.136c-4.187.767-9.469 1.092-15.846 1-6.374-.089-12.991-.757-19.842-1.999-6.854-1.231-13.229-4.086-19.13-8.559-5.898-4.473-10.085-10.328-12.56-17.556l-2.855-6.57c-1.903-4.374-4.899-9.233-8.992-14.559-4.093-5.331-8.232-8.945-12.419-10.848l-1.999-1.431c-1.332-.951-2.568-2.098-3.711-3.429-1.142-1.331-1.997-2.663-2.568-3.997-.572-1.335-.098-2.43 1.427-3.289 1.525-.859 4.281-1.276 8.28-1.276l5.708.853c3.807.763 8.516 3.042 14.133 6.851 5.614 3.806 10.229 8.754 13.846 14.842 4.38 7.806 9.657 13.754 15.846 17.847 6.184 4.093 12.419 6.136 18.699 6.136 6.28 0 11.704-.476 16.274-1.423 4.565-.952 8.848-2.383 12.847-4.285 1.713-12.758 6.377-22.559 13.988-29.41-10.848-1.14-20.601-2.857-29.264-5.14-8.658-2.286-17.605-5.996-26.835-11.14-9.235-5.137-16.896-11.516-22.985-19.126-6.09-7.614-11.088-17.61-14.987-29.979-3.901-12.374-5.852-26.648-5.852-42.826 0-23.035 7.52-42.637 22.557-58.817-7.044-17.318-6.379-36.732 1.997-58.24 5.52-1.715 13.706-.428 24.554 3.853 10.85 4.283 18.794 7.952 23.84 10.994 5.046 3.041 9.089 5.618 12.135 7.708 17.705-4.947 35.976-7.421 54.818-7.421s37.117 2.474 54.823 7.421l10.849-6.849c7.419-4.57 16.18-8.758 26.262-12.565 10.088-3.805 17.802-4.853 23.134-3.138 8.562 21.509 9.325 40.922 2.279 58.24 15.036 16.18 22.559 35.787 22.559 58.817 0 16.178-1.958 30.497-5.853 42.966-3.9 12.471-8.941 22.457-15.125 29.979-6.191 7.521-13.901 13.85-23.131 18.986-9.232 5.14-18.182 8.85-26.84 11.136-8.662 2.286-18.415 4.004-29.263 5.146 9.894 8.562 14.842 22.077 14.842 40.539v60.237c0 3.422 1.19 6.279 3.572 8.562 2.379 2.279 6.136 2.95 11.276 1.995 44.163-14.653 80.185-41.062 108.068-79.226 27.88-38.161 41.825-81.126 41.825-128.906-.01-39.771-9.818-76.454-29.414-110.049z"></path>
  </symbol>
  <symbol xmlns="http://www.w3.org/2000/svg" viewBox="0 0 24 24" id="git">
    <path
      d="M2.6 10.59 8.38 4.8l1.69 1.7c-.24.85.15 1.78.93 2.23v5.54c-.6.34-1 .99-1 1.73a2 2 0 0 0 2 2 2 2 0 0 0 2-2c0-.74-.4-1.39-1-1.73V9.41l2.07 2.09c-.07.15-.07.32-.07.5a2 2 0 0 0 2 2 2 2 0 0 0 2-2 2 2 0 0 0-2-2c-.18 0-.35 0-.5.07L13.93 7.5a1.98 1.98 0 0 0-1.15-2.34c-.43-.16-.88-.2-1.28-.09L9.8 3.38l.79-.78c.78-.79 2.04-.79 2.82 0l7.99 7.99c.79.78.79 2.04 0 2.82l-7.99 7.99c-.78.79-2.04.79-2.82 0L2.6 13.41c-.79-.78-.79-2.04 0-2.82z"></path>
  </symbol>
  <symbol xml:space="preserve" xmlns="http://www.w3.org/2000/svg" viewBox="0 0 512 512"
    id="instagram">
    <path d="M505 257c0 34.8-.7 69.7.2 104.5 1.5 61.6-37.2 109.2-86.5 130.4-19.8 8.5-40.6 13-62.1 13-67.3.1-134.7 1-202-.3-50.7-1-92.4-22.2-122.3-64-15.7-22-23.2-47-23.2-74.1v-215c0-58.5 28.5-99.4 79.1-126C110.2 14 134.1 9.1 159 9c65.3 0 130.7-.4 196 .2 50.7.4 93 19.8 124.2 60.6 17.4 22.8 25.8 49 25.8 77.8V257zm-459 0v110c0 16.4 3.8 31.8 12.3 45.7 22.3 36.5 56 54.3 97.8 55 67.1 1 134.3.4 201.5.2 16.5 0 32.5-3.4 47.4-10.5 40.6-19.4 63.3-50.3 63.1-96.7-.4-71-.1-142-.1-213 0-20.1-5.7-38.5-17.6-54.7-23-31.1-54.8-46.4-92.8-46.8-67-.8-134-.3-201-.2-14.3 0-28.1 2.9-41.5 7.9-36.8 13.7-71 48.4-69.4 99.5 1.2 34.6.3 69.1.3 103.6z"></path>
    <path d="M257.6 363c-64.5 0-116.5-51.4-116.6-115.4-.1-63 52.3-114.6 116.4-114.6 64.3-.1 116.5 51.4 116.6 114.9 0 63.4-52.1 115-116.4 115.1zm0-37c43.9 0 79.5-35.1 79.4-78.3-.1-42.8-35.7-77.8-79.4-77.8-43.9 0-79.7 34.9-79.7 78 .1 43.2 35.8 78.2 79.7 78.1zM387.5 98c13.5 0 24.5 11.5 24.5 25.6-.1 14.1-11.2 25.5-24.7 25.4-13.3-.1-24.2-11.5-24.2-25.3C363 109.6 374 98 387.5 98z"></path>
  </symbol>
  <symbol xmlns="http://www.w3.org/2000/svg" viewBox="0 0 32 32" id="javascript">
    <path
      d="M18.774 19.7a3.727 3.727 0 0 0 3.376 2.078c1.418 0 2.324-.709 2.324-1.688 0-1.173-.931-1.589-2.491-2.272l-.856-.367c-2.469-1.052-4.11-2.37-4.11-5.156 0-2.567 1.956-4.52 5.012-4.52A5.058 5.058 0 0 1 26.9 10.52l-2.665 1.711a2.327 2.327 0 0 0-2.2-1.467 1.489 1.489 0 0 0-1.638 1.467c0 1.027.636 1.442 2.1 2.078l.856.366c2.908 1.247 4.549 2.518 4.549 5.376 0 3.081-2.42 4.769-5.671 4.769a6.575 6.575 0 0 1-6.236-3.5zM6.686 20c.538.954 1.027 1.76 2.2 1.76 1.124 0 1.834-.44 1.834-2.15V7.975h3.422v11.683c0 3.543-2.078 5.156-5.11 5.156A5.312 5.312 0 0 1 3.9 21.688z"></path>
  </symbol>
  <symbol xmlns="http://www.w3.org/2000/svg" viewBox="0 0 450 512" id="jest">
    <path
      d="M242.377 187.713 178.767 0h270.246l-63.83 188.259a64.436 64.436 0 0 0-8.083 2.505L314.045 62.133l-63.238 127.87a64.402 64.402 0 0 0-8.43-2.29zM34.55 494.993c85.001 59.705 179.284-55.824 307.71-70.378 73.75-4.37 123.878-49.518 95.316-119.409-53.105 32.709-102.736-10.153-102.389-53.163h-40.353c-1.325 38.399-30.208 68.609-74.979 64.118-35.044 52.425-75.66 81.88-121.746 96.852-31.149-14.375-60.462-49.39-47.172-96.158a64.655 64.655 0 0 1-16.855-4.231c-42.842 79.999-48.136 143.223.468 182.369zm63.281-242.944c0-30.385-33.119-49.478-59.47-34.286s-26.353 53.38 0 68.571c26.351 15.193 59.47-3.9 59.47-34.285zm171.408-.377c0-30.384-33.12-49.478-59.471-34.285s-26.352 53.379 0 68.57c26.352 15.193 59.47-3.9 59.47-34.285zm170.764 0c0-30.384-33.12-49.478-59.471-34.285s-26.352 53.379 0 68.57c26.352 15.193 59.47-3.9 59.47-34.285z"></path>
  </symbol>
  <symbol xmlns="http://www.w3.org/2000/svg" viewBox="0 0 32 32" id="json">
    <path
      d="M16.057 31.958a15.416 15.416 0 0 0 1.901-.125 15.825 15.825 0 0 0 4.193-1.151 16.528 16.528 0 0 0 5.057-3.391 15.922 15.922 0 0 0 3.255-4.573c.677-1.458 1.161-3.031 1.359-4.63.198-1.547.182-3.13-.057-4.667a16.195 16.195 0 0 0-1.057-3.719 15.426 15.426 0 0 0-1.141-2.156c-1.557-2.448-3.813-4.417-6.411-5.734A17.13 17.13 0 0 0 20.26.656h-.01c.161.083.323.172.464.266.156.099.318.198.469.302.755.51 1.458 1.099 2.078 1.771 1.417 1.526 2.396 3.401 2.953 5.391.38 1.307.583 2.661.661 4.021.057.99.057 1.99-.063 2.974-.198 1.693-.74 3.344-1.635 4.792a10.012 10.012 0 0 1-2.536 2.781c-1.661 1.234-3.839 1.974-5.917 1.484a5.091 5.091 0 0 1-.995-.344 6.254 6.254 0 0 1-1.042-.599 8.116 8.116 0 0 1-1.656-1.474 8.605 8.605 0 0 1-1.401-2.328 9.76 9.76 0 0 1-.656-3.391c-.042-1.698.297-3.401 1.135-4.891a8.503 8.503 0 0 1 2.219-2.557c.302-.24.62-.443.938-.641l.021-.01a6.976 6.976 0 0 0-1.922-.156 6.564 6.564 0 0 0-1.635.318 7.701 7.701 0 0 0-1.359.599 8.041 8.041 0 0 0-.974.661c-.281.24-.563.479-.823.74-1.495 1.536-2.359 3.573-2.698 5.672-.198 1.302-.198 2.615-.12 3.938.141 1.859.521 3.714 1.26 5.411a11.348 11.348 0 0 0 1.797 2.901 10.868 10.868 0 0 0 4.177 2.974c.901.359 1.859.62 2.818.719.099.021.198.021.276.021zm-3.911-.531a5.861 5.861 0 0 1-.599-.302c-.198-.115-.401-.224-.599-.349a11.13 11.13 0 0 1-2.12-1.698c-1.458-1.516-2.438-3.422-2.995-5.443-.38-1.38-.583-2.802-.661-4.229a16.458 16.458 0 0 1 .063-2.776c.177-1.677.661-3.333 1.5-4.771a9.098 9.098 0 0 1 2.375-2.74 8.147 8.147 0 0 1 2.177-1.198 7.079 7.079 0 0 1 3.417-.359c.443.057.88.156 1.281.297.036 0 .036 0 .057.042.021.021.063.021.083.036.057.026.135.063.219.099.318.161.635.365.938.563a8.408 8.408 0 0 1 2.797 3.333c.557 1.219.818 2.583.839 3.922.021 1.438-.24 2.875-.859 4.193a8.558 8.558 0 0 1-3.516 3.776c.12.042.24.057.359.099.302.057.599.099.917.099 1.958.063 3.859-.88 5.255-2.198.26-.24.5-.5.719-.776.302-.359.583-.719.823-1.099.318-.5.578-1 .818-1.536.302-.719.536-1.458.677-2.219.26-1.339.281-2.698.198-4.036-.177-2.698-.896-5.396-2.453-7.63-.24-.339-.479-.661-.74-.958a13.11 13.11 0 0 0-1.422-1.38A10.994 10.994 0 0 0 19.876.97a12.981 12.981 0 0 0-2.255-.797L17.22.09c-.276-.042-.557-.057-.844-.078a10.636 10.636 0 0 0-1.354.021c-.938.057-1.88.214-2.813.448C7.735 1.637 3.818 4.757 1.735 8.892A15.851 15.851 0 0 0 .177 18.1c.161 1.359.5 2.698 1.036 3.969.307.76.682 1.5 1.104 2.198 1.458 2.38 3.578 4.318 6.01 5.656.917.521 1.88.917 2.875 1.26.302.099.604.198.922.276z"></path>
  </symbol>
  <symbol xml:space="preserve" xmlns="http://www.w3.org/2000/svg" viewBox="0 0 512 512"
    id="linkedIn">
    <path d="M173.5 508.7v-330c0-3-.2-5.4 4.2-5.4 31.8.2 63.7.1 95.5.1.8 0 1.6.2 2.9.4v41.7c.4.1.7.3 1.1.4 4-5.2 7.8-10.6 12-15.7 12.2-15 27.5-26 45.5-32.6 9.8-3.6 20.5-5.8 30.8-6.3 14.2-.6 28.7-.4 42.7 2 23 3.9 43.3 14.1 60.1 30.8 15.9 15.7 26.4 34.6 32.1 55.9 3 11.3 4.9 22.9 6.7 34.4 1.2 8 1.8 16.2 1.8 24.2.1 65 .1 130 .1 195 0 1.6-.1 3.2-.2 5.3h-5.1c-30.7 0-61.3-.1-92 .1-5.1 0-6-1.7-6-6.3.1-59.8.3-119.7-.1-179.5-.1-10.5-1.1-21.4-3.8-31.5-4.9-17.7-16.1-30.5-33.9-37-15-5.5-30.2-6.5-45.6-2.6-17 4.3-28.7 15.6-37.5 30.5-6.8 11.5-8.1 24.2-8.2 36.9-.4 60.7-.2 121.3-.2 182v7.1c-34.5.1-68.4.1-102.9.1zM109.1 342.6c0 53.3-.1 106.6.1 159.9 0 4.8-1 6.6-6.3 6.5-30.5-.3-61-.3-91.5 0-5 0-6.1-1.7-6.1-6.3.1-107.1.1-214.3 0-321.4 0-4.3 1.2-5.8 5.6-5.8 30.8.2 61.6.2 92.5 0 4.8 0 5.7 1.8 5.7 6.1v161zM56.1 4.8C89 4 108.7 27.9 108.8 57.2c.1 30-20.9 52.4-53.9 52.3-30.7 0-52.4-22-52.3-53.1.1-29.1 21.2-52.6 53.5-51.6z"></path>
  </symbol>
  <symbol xmlns="http://www.w3.org/2000/svg" viewBox="0 0 24 24" id="mobx">
    <path
      d="M1.402 0C.625 0 0 .625 0 1.402v21.196C0 23.375.625 24 1.402 24h21.196c.777 0 1.402-.625 1.402-1.402V1.402C24 .625 23.375 0 22.598 0zm2.882 5.465h3.038v13.068H4.284v-.986h1.863V6.45H4.284zm12.394 0h3.038v.985h-1.863v11.098h1.863v.986h-3.038zm-7.856 3.55h1.35c.108.441.234.914.378 1.418.153.495.31.99.472 1.485.171.486.342.958.513 1.417.171.46.333.869.486 1.229.153-.36.315-.77.486-1.229.171-.459.338-.931.5-1.417.17-.495.328-.99.472-1.485.153-.504.284-.977.392-1.418h1.296a34.295 34.295 0 0 1-1.242 3.78 56.44 56.44 0 0 1-1.364 3.24h-1.134a63.191 63.191 0 0 1-1.377-3.24 36.226 36.226 0 0 1-1.228-3.78z"></path>
  </symbol>
  <symbol xmlns="http://www.w3.org/2000/svg" viewBox="0 0 524 512" id="npm">
    <path
      d="M261 269h-27v-58h27v58zm59.5 29H379v-87h28.5v87l29 1v-88H467v87h29V182H320.5v116zm-146 29H234v-28.5h57v-58l1-58.5H174.5v145zm-146-28.5h60V211h28v87h30V182h-118v116.5zM524 327H263.5v30.5h-117v-30H0V153h524v174z"></path>
  </symbol>
  <symbol xmlns="http://www.w3.org/2000/svg" viewBox="0 0 40 40" id="adobephotoshop">
    <path
      d="M14.28 11c-1.62 0-3.16 0-4.21.08-.13 0-.36.08-.36.2V28.8c0 .15.07.2.2.2h2.49c.15 0 .2-.07.2-.2v-6.26h1.27c3.69 0 6.69-1.78 6.69-5.92 0-3.14-1.76-5.62-6.28-5.62zm-.34 9a11.61 11.61 0 0 1-1.32 0v-6.36c.29 0 .91-.05 1.56-.05 2.17 0 3.46 1.05 3.46 3.12 0 2.59-1.8 3.29-3.7 3.29zm16.38 5.28c0 2.61-2 4-4.7 4a7.12 7.12 0 0 1-3.35-.7c-.11-.05-.13-.13-.13-.26V25.9c0-.16.08-.21.2-.13a6.08 6.08 0 0 0 3.28 1c1.3 0 1.84-.54 1.84-1.28s-.38-1.11-2-2c-2.32-1.11-3.29-2.24-3.29-4.12 0-2.11 1.65-3.86 4.51-3.86a7.42 7.42 0 0 1 2.93.46.35.35 0 0 1 .16.32v2.24c0 .14-.08.22-.24.17a5.5 5.5 0 0 0-2.88-.7c-1.29 0-1.73.66-1.73 1.2s.3 1 2 1.89c2.6 1.22 3.4 2.41 3.4 4.16z"></path>
  </symbol>
  <symbol xmlns="http://www.w3.org/2000/svg" viewBox="0 0 128 128" id="react">
    <g>
      <circle cx="64" cy="64" r="11.4"></circle>
      <path
        d="M107.3 45.2c-2.2-.8-4.5-1.6-6.9-2.3.6-2.4 1.1-4.8 1.5-7.1 2.1-13.2-.2-22.5-6.6-26.1-1.9-1.1-4-1.6-6.4-1.6-7 0-15.9 5.2-24.9 13.9-9-8.7-17.9-13.9-24.9-13.9-2.4 0-4.5.5-6.4 1.6-6.4 3.7-8.7 13-6.6 26.1.4 2.3.9 4.7 1.5 7.1-2.4.7-4.7 1.4-6.9 2.3C8.2 50 1.4 56.6 1.4 64s6.9 14 19.3 18.8c2.2.8 4.5 1.6 6.9 2.3-.6 2.4-1.1 4.8-1.5 7.1-2.1 13.2.2 22.5 6.6 26.1 1.9 1.1 4 1.6 6.4 1.6 7.1 0 16-5.2 24.9-13.9 9 8.7 17.9 13.9 24.9 13.9 2.4 0 4.5-.5 6.4-1.6 6.4-3.7 8.7-13 6.6-26.1-.4-2.3-.9-4.7-1.5-7.1 2.4-.7 4.7-1.4 6.9-2.3 12.5-4.8 19.3-11.4 19.3-18.8s-6.8-14-19.3-18.8zM92.5 14.7c4.1 2.4 5.5 9.8 3.8 20.3-.3 2.1-.8 4.3-1.4 6.6-5.2-1.2-10.7-2-16.5-2.5-3.4-4.8-6.9-9.1-10.4-13 7.4-7.3 14.9-12.3 21-12.3 1.3 0 2.5.3 3.5.9zM81.3 74c-1.8 3.2-3.9 6.4-6.1 9.6-3.7.3-7.4.4-11.2.4-3.9 0-7.6-.1-11.2-.4-2.2-3.2-4.2-6.4-6-9.6-1.9-3.3-3.7-6.7-5.3-10 1.6-3.3 3.4-6.7 5.3-10 1.8-3.2 3.9-6.4 6.1-9.6 3.7-.3 7.4-.4 11.2-.4 3.9 0 7.6.1 11.2.4 2.2 3.2 4.2 6.4 6 9.6 1.9 3.3 3.7 6.7 5.3 10-1.7 3.3-3.4 6.6-5.3 10zm8.3-3.3c1.5 3.5 2.7 6.9 3.8 10.3-3.4.8-7 1.4-10.8 1.9 1.2-1.9 2.5-3.9 3.6-6 1.2-2.1 2.3-4.2 3.4-6.2zM64 97.8c-2.4-2.6-4.7-5.4-6.9-8.3 2.3.1 4.6.2 6.9.2 2.3 0 4.6-.1 6.9-.2-2.2 2.9-4.5 5.7-6.9 8.3zm-18.6-15c-3.8-.5-7.4-1.1-10.8-1.9 1.1-3.3 2.3-6.8 3.8-10.3 1.1 2 2.2 4.1 3.4 6.1 1.2 2.2 2.4 4.1 3.6 6.1zm-7-25.5c-1.5-3.5-2.7-6.9-3.8-10.3 3.4-.8 7-1.4 10.8-1.9-1.2 1.9-2.5 3.9-3.6 6-1.2 2.1-2.3 4.2-3.4 6.2zM64 30.2c2.4 2.6 4.7 5.4 6.9 8.3-2.3-.1-4.6-.2-6.9-.2-2.3 0-4.6.1-6.9.2 2.2-2.9 4.5-5.7 6.9-8.3zm22.2 21-3.6-6c3.8.5 7.4 1.1 10.8 1.9-1.1 3.3-2.3 6.8-3.8 10.3-1.1-2.1-2.2-4.2-3.4-6.2zM31.7 35c-1.7-10.5-.3-17.9 3.8-20.3 1-.6 2.2-.9 3.5-.9 6 0 13.5 4.9 21 12.3-3.5 3.8-7 8.2-10.4 13-5.8.5-11.3 1.4-16.5 2.5-.6-2.3-1-4.5-1.4-6.6zM7 64c0-4.7 5.7-9.7 15.7-13.4 2-.8 4.2-1.5 6.4-2.1 1.6 5 3.6 10.3 6 15.6-2.4 5.3-4.5 10.5-6 15.5C15.3 75.6 7 69.6 7 64zm28.5 49.3c-4.1-2.4-5.5-9.8-3.8-20.3.3-2.1.8-4.3 1.4-6.6 5.2 1.2 10.7 2 16.5 2.5 3.4 4.8 6.9 9.1 10.4 13-7.4 7.3-14.9 12.3-21 12.3-1.3 0-2.5-.3-3.5-.9zM96.3 93c1.7 10.5.3 17.9-3.8 20.3-1 .6-2.2.9-3.5.9-6 0-13.5-4.9-21-12.3 3.5-3.8 7-8.2 10.4-13 5.8-.5 11.3-1.4 16.5-2.5.6 2.3 1 4.5 1.4 6.6zm9-15.6c-2 .8-4.2 1.5-6.4 2.1-1.6-5-3.6-10.3-6-15.6 2.4-5.3 4.5-10.5 6-15.5 13.8 4 22.1 10 22.1 15.6 0 4.7-5.8 9.7-15.7 13.4z"></path>
    </g>
  </symbol>
  <symbol xmlns="http://www.w3.org/2000/svg" viewBox="0 0 32 32" id="scss">
    <path
      d="M16.171 18.7c-.481.221-1.008.509-2.063 1.088-.4.225-.818.45-1.207.662-.027-.027-.055-.061-.082-.089-2.087-2.23-5.947-3.805-5.783-6.8.061-1.091.436-3.955 7.413-7.433 5.742-2.83 10.311-2.046 11.1-.307 1.134 2.479-2.449 7.092-8.379 7.761a4.469 4.469 0 0 1-3.751-.948c-.314-.341-.361-.361-.477-.293-.191.1-.068.409 0 .586a3.5 3.5 0 0 0 2.141 1.684 11.4 11.4 0 0 0 6.956-.689c3.594-1.391 6.4-5.258 5.578-8.5-.825-3.287-6.281-4.371-11.443-2.537a26 26 0 0 0-8.79 5.047c-2.844 2.66-3.294 4.972-3.11 5.94.662 3.437 5.4 5.674 7.3 7.331-.1.055-.184.1-.259.143-.948.471-4.562 2.36-5.463 4.358-1.023 2.264.164 3.887.948 4.105a5.832 5.832 0 0 0 6.281-2.544 6.3 6.3 0 0 0 .559-5.8 5.03 5.03 0 0 1 .716-.477c.484-.286.945-.568 1.354-.786a10.475 10.475 0 0 1 4.475-.989c3.246.382 3.887 2.407 3.764 3.26a2.157 2.157 0 0 1-1.03 1.459c-.225.143-.3.191-.28.293.027.15.136.143.327.116a2.535 2.535 0 0 0 1.766-2.257c.1-2-1.807-4.194-5.183-4.174a7.753 7.753 0 0 0-2.946.587q-.225.093-.437.2zm-4.825 7.839c-1.078 1.173-2.578 1.616-3.226 1.241-.7-.4-.423-2.135.9-3.376a17.18 17.18 0 0 1 2.53-1.889c.157-.1.389-.232.668-.4l.075-.041.164-.1a4.658 4.658 0 0 1-1.111 4.565z"></path>
  </symbol>
  <symbol xmlns="http://www.w3.org/2000/svg" viewBox="0 0 32 32" id="stylelint">
    <path
      d="M16.19 29.289c3.063-10.949 2.974-11 5.187-18.806l.532.308c.29.166.526.029.526-.3V6.763c.588-2.057 1.047-3.647 1.183-4.123h2.4L30 6.329 27.383 8.59l1.979 2.14-13.04 18.559c-.063.105-.152.081-.132 0zm1.425-23.6c.119 0 .214.065.214.147v1.907c0 .08-.1.145-.214.145h-3.22c-.119 0-.215-.065-.215-.146V5.834c0-.081.1-.147.214-.147h3.221zm3.976-2.113-3.543 2.045a.392.392 0 0 1 .066.213v1.909a.391.391 0 0 1-.1.259l3.579 2.066c.244.141.444.026.444-.255V3.832c-.003-.282-.202-.397-.446-.256zM13.9 7.743V5.834a.388.388 0 0 1 .066-.213l-3.549-2.047c-.244-.14-.444-.025-.444.256v5.982c0 .281.2.4.445.255L14 8a.391.391 0 0 1-.1-.259zm1.783 21.546h.132c-3.062-10.949-2.974-11-5.187-18.806l-.532.308c-.289.166-.526.029-.526-.3V6.763C8.976 4.708 8.517 3.116 8.381 2.64h-2.4L2 6.329 4.616 8.59l-1.979 2.141zm.217-17.416a.967.967 0 1 0-.967-.967.967.967 0 0 0 .967.967zm0 5.75a.967.967 0 1 0-.967-.967.967.967 0 0 0 .967.967zm0 5.752a.967.967 0 1 0-.967-.967.967.967 0 0 0 .967.967z"></path>
  </symbol>
  <symbol xmlns="http://www.w3.org/2000/svg" viewBox="0 0 256 256" id="telegram">
    <path
      d="M229.951 33.252a13.965 13.965 0 0 0-14.254-2.422L31.14 103.335a14 14 0 0 0 2.374 26.759L82 139.79v60.193a13.994 13.994 0 0 0 23.9 9.899l27.269-27.27 40.785 35.892a13.884 13.884 0 0 0 9.202 3.502 14.145 14.145 0 0 0 4.343-.689 13.884 13.884 0 0 0 9.35-10.197l37.613-164.133a13.967 13.967 0 0 0-4.51-13.736zm-195.684 83.29a1.854 1.854 0 0 1 1.26-2.037l154.429-60.669-103.347 74.639-50.742-10.149a1.854 1.854 0 0 1-1.6-1.784zm63.147 84.856A2 2 0 0 1 94 199.984v-51.84l30.143 26.526zm87.738 7.042a2 2 0 0 1-3.271 1.056l-84.274-74.161 124.984-90.266z"></path>
  </symbol>
  <symbol xmlns="http://www.w3.org/2000/svg" viewBox="0 0 512 512" id="nextjs">
    <path
      d="M386.399 35.508C217.06-64.061 1.885 57.55.012 253.882c-1.828 191.716 201.063 315.545 370.02 231.163L185.56 213.636v167.997c0 18.614-35.619 18.614-35.619 0V156.421c0-14.776 27.448-15.989 35.226-3.145L395.43 470.572c157.95-101.737 155.817-338.136-9.031-435.064zm-23.756 317.939L326.91 298.87V149.458c0-13.932 35.732-13.932 35.732 0v203.989z"></path>
  </symbol>
  <symbol xmlns="http://www.w3.org/2000/svg" viewBox="0 0 32 32" id="appveyor">
    <path
      d="M 12,0 C 18.6,0 24,5.4 24,12 24,18.6 18.6,24 12,24 5.4,24 0,18.6 0,12 0,5.4 5.4,0 12,0 Z m 2.94,14.34 C 16.26,12.66 16.08,10.26 14.4,9 12.78,7.74 10.38,8.04 9,9.72 7.68,11.4 7.86,13.8 9.54,15.06 c 1.68,1.26 4.08,0.96 5.4,-0.72 z m -6.42,7.8 c 0.72,0.3 2.28,0.6 3.06,0.6 l 5.22,-7.56 c 1.68,-2.52 1.26,-5.94 -1.08,-7.8 -2.1,-1.68 -5.04,-1.62 -7.14,0 l -7.26,5.58 c 0.18,1.92 0.72,2.88 0.72,2.94 l 4.14,-4.5 c -0.3,1.98 0.42,4.02 2.1,5.28 1.44,1.14 3.18,1.44 4.86,1.08 z" />
  </symbol>
  <symbol xmlns="http://www.w3.org/2000/svg" viewBox="0 0 24 24" id="css">
    <path
      d="M12 8V2H6a2 2 0 0 0-2 2v10.035a3.5 3.5 0 0 1 2.377 1.471A2.95 2.95 0 0 1 8.95 14h.1c1.02 0 1.92.518 2.45 1.306A2.947 2.947 0 0 1 13.95 14h.1A2.95 2.95 0 0 1 17 16.95V17c0 .45-.17.86-.45 1.17.288.439.45.96.45 1.507v.373c0 .747-.278 1.43-.736 1.95H18a2 2 0 0 0 2-2V10h-6a2 2 0 0 1-2-2zm2.05 14A1.95 1.95 0 0 0 16 20.05v-.373a1.748 1.748 0 0 0-1.1-1.625l-.566-.226-.713-.428a.25.25 0 0 1-.121-.214v-.234a.45.45 0 0 1 .45-.45h.1a.45.45 0 0 1 .45.45V17a.75.75 0 0 0 1.5 0v-.05A1.95 1.95 0 0 0 14.05 15h-.1A1.95 1.95 0 0 0 12 16.95v.373a1.748 1.748 0 0 0 1.1 1.625l.566.226.713.428a.25.25 0 0 1 .121.214v.234a.45.45 0 0 1-.45.45h-.1a.45.45 0 0 1-.45-.45V20a.75.75 0 0 0-1.5 0v.05A1.95 1.95 0 0 0 13.95 22h.1zM11 20.05A1.95 1.95 0 0 1 9.05 22h-.1A1.95 1.95 0 0 1 7 20.05V20a.747.747 0 0 1 .75-.75.751.751 0 0 1 .75.75v.05a.45.45 0 0 0 .45.45h.1a.45.45 0 0 0 .45-.45v-.234a.25.25 0 0 0-.121-.214l-.713-.428-.566-.226A1.75 1.75 0 0 1 7 17.323v-.373A1.95 1.95 0 0 1 8.95 15h.1A1.95 1.95 0 0 1 11 16.95V17a.747.747 0 0 1-.75.75.75.75 0 0 1-.75-.75v-.05a.45.45 0 0 0-.45-.45h-.1a.45.45 0 0 0-.45.45v.234c0 .088.046.169.121.214l.713.428.566.226a1.75 1.75 0 0 1 1.1 1.625v.373zM5.95 22l.05-.05V22h-.05zm-1.124-.38A2.498 2.498 0 0 0 6 19.5a.75.75 0 1 0-1.5 0 1 1 0 1 1-2 0v-2a1 1 0 1 1 2 0 .75.75 0 1 0 1.5 0 2.5 2.5 0 0 0-5 0v2a2.5 2.5 0 0 0 3.826 2.12zM13.5 8V2.5l6 6H14a.5.5 0 0 1-.5-.5z" />
  </symbol>
  <symbol xmlns="http://www.w3.org/2000/svg" viewBox="0 0 7.678 7.68" id="figma">
    <path
      d="M2.56 7.68A1.28 1.28 0 0 0 3.84 6.4V5.12H2.56a1.28 1.28 0 0 0 0 2.56zM1.28 3.84a1.28 1.28 0 0 1 1.28-1.28h1.28v2.56H2.56a1.28 1.28 0 0 1-1.28-1.28z"></path>
    <path
      d="M1.28 1.28A1.28 1.28 0 0 1 2.559 0h1.28v2.56H2.56a1.28 1.28 0 0 1-1.28-1.28zM3.84 0h1.28a1.28 1.28 0 0 1 0 2.56H3.84z"></path>
    <path d="M6.4 3.84a1.28 1.28 0 0 1-2.56 0 1.28 1.28 0 0 1 2.56 0z"></path>
  </symbol>
  <symbol xml:space="preserve" xmlns="http://www.w3.org/2000/svg" viewBox="0 0 30 30" id="html">
    <path d="m2.072 0 2.399 26.963L15.234 30l10.837-3.037L28.472 0h-26.4zm21.187 8.795H10.622l.281 3.393h12.074l-.937 10.201-6.73 1.855v.02h-.075l-6.787-1.875-.413-5.213h3.281l.244 2.625 3.675.994 3.692-.994.414-4.275H7.866L6.984 5.514H23.56l-.301 3.281z"></path>
  </symbol>
</svg>