<svg id="Flat" xmlns="http://www.w3.org/2000/svg" viewBox="0 0 256 256" fill="#1A1A1D">
  <path
    d="M229.951 33.252a13.965 13.965 0 0 0-14.254-2.422L31.14 103.335a14 14 0 0 0 2.374 26.759L82 139.79v60.193a13.994 13.994 0 0 0 23.9 9.899l27.269-27.27 40.785 35.892a13.884 13.884 0 0 0 9.202 3.502 14.145 14.145 0 0 0 4.343-.689 13.884 13.884 0 0 0 9.35-10.197l37.613-164.133a13.967 13.967 0 0 0-4.51-13.736zm-195.684 83.29a1.854 1.854 0 0 1 1.26-2.037l154.429-60.669-103.347 74.639-50.742-10.149a1.854 1.854 0 0 1-1.6-1.784zm63.147 84.856A2 2 0 0 1 94 199.984v-51.84l30.143 26.526zm87.738 7.042a2 2 0 0 1-3.271 1.056l-84.274-74.161 124.984-90.266z" />
</svg>