<?xml version="1.0" standalone="no"?>
<!DOCTYPE svg PUBLIC "-//W3C//DTD SVG 20010904//EN"
 "http://www.w3.org/TR/2001/REC-SVG-20010904/DTD/svg10.dtd">
<svg version="1.0" xmlns="http://www.w3.org/2000/svg"
 width="512.000000pt" height="512.000000pt" viewBox="0 0 512.000000 512.000000"
 preserveAspectRatio="xMidYMid meet" fill="#eab354">
<metadata>
Created by potrace 1.16, written by Peter Selinger 2001-2019
</metadata>
<g transform="translate(0.000000,512.000000) scale(0.100000,-0.100000)"
fill="#eab354" stroke="none">
<path d="M115 5103 c-44 -23 -74 -53 -96 -95 -19 -36 -19 -98 -19 -2448 0
-2350 0 -2412 19 -2448 22 -43 53 -73 98 -96 29 -15 242 -16 2443 -16 2350 0
2412 0 2448 19 43 22 73 53 96 98 15 29 16 242 16 2443 0 2201 -1 2414 -16
2443 -23 45 -53 76 -96 98 -36 19 -98 19 -2450 19 -2180 -1 -2416 -2 -2443
-17z m4795 -2543 l0 -2350 -2350 0 -2350 0 0 2350 0 2350 2350 0 2350 0 0
-2350z"/>
<path d="M1829 3720 c-37 -4 -92 -13 -123 -20 l-56 -11 0 -1095 0 -1094 130 0
130 0 0 453 0 452 108 1 c370 4 619 235 651 602 33 375 -108 615 -406 693 -89
23 -322 34 -434 19z m392 -248 c122 -61 178 -164 186 -344 10 -185 -31 -311
-129 -405 -75 -70 -145 -95 -268 -97 l-95 -1 -3 437 -2 437 22 4 c13 3 68 4
124 3 91 -1 106 -4 165 -34z"/>
<path d="M3124 3105 c-212 -67 -336 -267 -302 -490 20 -133 109 -252 278 -369
176 -122 230 -196 230 -319 0 -213 -177 -292 -413 -185 -37 17 -69 29 -71 27
-2 -2 -17 -47 -33 -99 l-30 -95 30 -18 c139 -85 364 -96 523 -25 64 28 137 90
174 148 72 112 92 301 46 431 -44 126 -102 191 -303 340 -150 111 -184 155
-191 245 -6 69 30 147 85 184 32 22 47 25 122 25 78 0 91 -3 145 -32 33 -18
60 -32 61 -30 13 19 64 191 59 199 -9 14 -87 48 -149 64 -62 17 -206 16 -261
-1z"/>
</g>
</svg>
